PathFileType	4	(x/y/z)	S06_SL_Cal_T01
DataRate	CameraRate	NumFrames	NumMarkers	Units	OrigDataRate	OrigDataStartFrame	OrigNumFrames
240	240	10	51	mm	240	2100	2399
Frame#	Time	Sternum			R.Acromium			L.Acromium			Top.Head			R.ASIS			L.ASIS			R.PSIS			L.PSIS			R.Great.Tro			L.Great.Tro			R.Iliac.Crest			L.Iliac.Crest			V.Sacral			R.Thigh.Upper.Post			R.Thigh.Lower.Ant			R.Thigh.Lower.Post			R.Thigh.Upper.Ant			R.Knee.Lat			R.Knee.Med			R.Shank.Upper.Post			R.Shank.Lower.Ant			R.Shank.Lower.Post			R.Shank.Upper.Ant			R.Ankle.Lat			R.Ankle.Med			R.Heel.Upper			R.Heel.Med			R.Heel.Lat			R.Toe.Lat			R.Toe.Med			R.Toe.Tip			L.Thigh.Upper.Post			L.Thigh.Lower.Ant			L.Thigh.Lower.Post			L.Thigh.Upper.Ant			L.Knee.Lat			L.Knee.Med			L.Shank.Upper.Post			L.Shank.Lower.Ant			L.Shank.Lower.Post			L.Shank.Upper.Ant			L.Ankle.Lat			L.Ankle.Med			L.Heel.Upper			L.Heel.Med			L.Heel.Lat			L.Toe.Lat			L.Toe.Med			L.Toe.Tip			Cervical.Spine			Back			
		X1	Y1	Z1	X2	Y2	Z2	X3	Y3	Z3	X4	Y4	Z4	X5	Y5	Z5	X6	Y6	Z6	X7	Y7	Z7	X8	Y8	Z8	X9	Y9	Z9	X10	Y10	Z10	X11	Y11	Z11	X12	Y12	Z12	X13	Y13	Z13	X14	Y14	Z14	X15	Y15	Z15	X16	Y16	Z16	X17	Y17	Z17	X18	Y18	Z18	X19	Y19	Z19	X20	Y20	Z20	X21	Y21	Z21	X22	Y22	Z22	X23	Y23	Z23	X24	Y24	Z24	X25	Y25	Z25	X26	Y26	Z26	X27	Y27	Z27	X28	Y28	Z28	X29	Y29	Z29	X30	Y30	Z30	X31	Y31	Z31	X32	Y32	Z32	X33	Y33	Z33	X34	Y34	Z34	X35	Y35	Z35	X36	Y36	Z36	X37	Y37	Z37	X38	Y38	Z38	X39	Y39	Z39	X40	Y40	Z40	X41	Y41	Z41	X42	Y42	Z42	X43	Y43	Z43	X44	Y44	Z44	X45	Y45	Z45	X46	Y46	Z46	X47	Y47	Z47	X48	Y48	Z48	X49	Y49	Z49	X50	Y50	Z50	X51	Y51	Z51	

2100	8.7458	763.43	1312.7	317.08	620.57	1543.4	466.83	624.81	1535.2	149.6	687.71	1827.5	311.55	730.21	1065.4	441.88	737.34	1058.6	189.13	532.42	1085.7	343.47	533.78	1088.7	263.41	667.39	1001.2	490.95	638.79	995.52	135.32	643.79	1142.1	470.31	667.93	1134.6	150.86	518.76	1052.3	306.39	645.33	752.93	497.29	694.42	667.6	468.8	626.63	666.48	481.84	717.26	755.19	481.3	637.47	552.17	476.55	643.93	544.66	349.79	571.79	328.4	495.1	627.8	259.38	480.34	563.18	251.31	485.8	637.2	335.34	489.11	588.01	112.41	471.94	605.93	112.29	385.19	522.45	74.419	428.63	531.27	43.746	397.8	529.13	43.294	463.34	704.6	36.326	507.01	734.55	44.263	387.41	799.87	54.021	436.36	670.75	733.27	130.49	717.42	645.06	177.69	646.61	646.25	142.7	735.87	737.95	162.85	623.93	551.04	152.07	659.61	542.72	269.84	561.73	327.36	142.77	622.3	262.65	134.01	554.49	254.65	153.77	626.37	334.05	129.39	589.85	111.76	136.85	606.85	108.99	225.63	518.89	73.116	179.45	525.53	46.238	211.79	522.38	47.541	149.71	697.48	45.811	98.929	727.7	43.324	216.41	795.36	55.178	157.55	579.52	1560.8	308.37	529.69	1292.8	309.19
2101	8.75	763.4	1312.7	317.08	620.54	1543.4	466.82	624.8	1535.2	149.58	687.68	1827.5	311.53	730.19	1065.4	441.88	737.32	1058.6	189.13	532.4	1085.7	343.45	533.76	1088.7	263.39	667.36	1001.2	490.95	638.79	995.53	135.3	643.75	1142.1	470.3	667.92	1134.6	150.86	518.75	1052.3	306.37	645.31	752.93	497.28	694.41	667.6	468.8	626.62	666.49	481.84	717.24	755.19	481.29	637.46	552.17	476.55	643.92	544.65	349.78	571.79	328.4	495.1	627.79	259.38	480.34	563.18	251.31	485.79	637.19	335.34	489.11	588.01	112.41	471.94	605.93	112.29	385.19	522.45	74.419	428.63	531.27	43.746	397.8	529.13	43.293	463.34	704.6	36.326	507.01	734.55	44.264	387.41	799.87	54.02	436.36	670.75	733.27	130.48	717.41	645.06	177.69	646.61	646.25	142.69	735.86	737.95	162.85	623.93	551.04	152.07	659.61	542.72	269.84	561.72	327.36	142.77	622.3	262.64	134.01	554.49	254.65	153.77	626.37	334.05	129.39	589.85	111.76	136.86	606.85	108.99	225.63	518.89	73.116	179.45	525.53	46.237	211.79	522.38	47.54	149.71	697.48	45.811	98.929	727.7	43.324	216.41	795.36	55.183	157.55	579.49	1560.8	308.36	529.67	1292.8	309.18
2102	8.7542	763.38	1312.7	317.08	620.5	1543.4	466.81	624.78	1535.2	149.57	687.66	1827.5	311.5	730.16	1065.5	441.88	737.31	1058.6	189.13	532.38	1085.7	343.44	533.74	1088.7	263.38	667.33	1001.2	490.94	638.78	995.53	135.29	643.72	1142.1	470.29	667.9	1134.6	150.85	518.73	1052.3	306.36	645.29	752.93	497.28	694.4	667.6	468.8	626.61	666.49	481.83	717.23	755.19	481.29	637.45	552.17	476.54	643.92	544.65	349.78	571.78	328.4	495.1	627.79	259.38	480.34	563.18	251.31	485.79	637.18	335.34	489.11	588.01	112.41	471.94	605.93	112.29	385.19	522.45	74.419	428.63	531.27	43.747	397.8	529.12	43.291	463.34	704.61	36.326	507.01	734.55	44.264	387.41	799.87	54.02	436.36	670.75	733.27	130.48	717.41	645.07	177.68	646.61	646.25	142.69	735.86	737.95	162.85	623.93	551.04	152.06	659.6	542.72	269.84	561.72	327.36	142.77	622.3	262.64	134	554.49	254.65	153.77	626.37	334.05	129.39	589.85	111.76	136.86	606.85	108.99	225.63	518.89	73.116	179.45	525.53	46.237	211.79	522.38	47.54	149.71	697.48	45.812	98.928	727.7	43.324	216.41	795.36	55.188	157.55	579.46	1560.8	308.35	529.65	1292.8	309.16
2103	8.7583	763.35	1312.7	317.08	620.46	1543.4	466.81	624.77	1535.2	149.56	687.63	1827.6	311.47	730.14	1065.5	441.88	737.3	1058.6	189.12	532.36	1085.7	343.43	533.73	1088.7	263.37	667.31	1001.2	490.94	638.77	995.53	135.28	643.68	1142.1	470.28	667.89	1134.6	150.85	518.71	1052.3	306.34	645.28	752.93	497.27	694.39	667.6	468.79	626.6	666.49	481.83	717.21	755.2	481.29	637.44	552.17	476.54	643.92	544.65	349.78	571.77	328.4	495.1	627.79	259.38	480.34	563.17	251.31	485.79	637.18	335.34	489.11	588.01	112.41	471.94	605.93	112.29	385.19	522.45	74.418	428.63	531.28	43.747	397.8	529.12	43.289	463.34	704.61	36.327	507.01	734.55	44.265	387.41	799.87	54.021	436.36	670.74	733.27	130.47	717.41	645.07	177.68	646.6	646.25	142.68	735.85	737.95	162.84	623.93	551.04	152.06	659.6	542.72	269.83	561.72	327.35	142.76	622.3	262.64	134	554.49	254.65	153.76	626.37	334.05	129.39	589.85	111.76	136.86	606.85	108.99	225.63	518.89	73.115	179.45	525.53	46.237	211.79	522.38	47.539	149.71	697.47	45.812	98.928	727.7	43.325	216.41	795.36	55.192	157.55	579.43	1560.8	308.34	529.62	1292.8	309.15
2104	8.7625	763.32	1312.7	317.08	620.43	1543.4	466.8	624.75	1535.2	149.55	687.6	1827.6	311.45	730.12	1065.5	441.88	737.29	1058.6	189.12	532.34	1085.7	343.42	533.71	1088.7	263.35	667.28	1001.2	490.93	638.76	995.53	135.27	643.65	1142.1	470.27	667.88	1134.6	150.84	518.7	1052.3	306.33	645.26	752.93	497.26	694.38	667.6	468.79	626.59	666.49	481.83	717.2	755.2	481.28	637.43	552.17	476.53	643.92	544.65	349.78	571.77	328.4	495.09	627.78	259.38	480.34	563.17	251.31	485.78	637.17	335.34	489.1	588.01	112.41	471.94	605.93	112.29	385.19	522.45	74.418	428.63	531.28	43.747	397.8	529.12	43.286	463.34	704.61	36.328	507.01	734.55	44.265	387.41	799.87	54.021	436.36	670.74	733.27	130.47	717.41	645.07	177.68	646.6	646.25	142.68	735.85	737.95	162.84	623.92	551.04	152.05	659.6	542.72	269.83	561.72	327.35	142.76	622.3	262.64	134	554.48	254.65	153.76	626.37	334.04	129.38	589.85	111.76	136.86	606.85	108.99	225.63	518.89	73.115	179.45	525.53	46.237	211.79	522.38	47.539	149.71	697.47	45.813	98.927	727.7	43.325	216.41	795.37	55.196	157.55	579.41	1560.8	308.33	529.6	1292.8	309.14
2105	8.7667	763.29	1312.7	317.08	620.39	1543.3	466.79	624.74	1535.2	149.54	687.58	1827.6	311.42	730.1	1065.5	441.88	737.27	1058.6	189.12	532.32	1085.7	343.41	533.69	1088.7	263.34	667.26	1001.2	490.92	638.76	995.53	135.26	643.62	1142.1	470.27	667.86	1134.6	150.83	518.68	1052.3	306.31	645.25	752.94	497.26	694.37	667.61	468.79	626.58	666.49	481.83	717.18	755.2	481.28	637.42	552.17	476.53	643.92	544.65	349.77	571.76	328.4	495.09	627.78	259.38	480.34	563.16	251.31	485.78	637.16	335.34	489.1	588.01	112.41	471.94	605.93	112.29	385.18	522.45	74.417	428.63	531.28	43.746	397.8	529.12	43.284	463.34	704.61	36.328	507.01	734.55	44.266	387.42	799.87	54.022	436.36	670.74	733.27	130.46	717.4	645.07	177.68	646.6	646.25	142.67	735.84	737.96	162.84	623.92	551.04	152.05	659.59	542.72	269.83	561.72	327.35	142.76	622.3	262.64	133.99	554.48	254.65	153.76	626.37	334.04	129.38	589.85	111.76	136.86	606.85	108.99	225.63	518.89	73.115	179.45	525.53	46.237	211.79	522.38	47.538	149.71	697.47	45.813	98.926	727.7	43.326	216.41	795.37	55.199	157.55	579.38	1560.8	308.32	529.57	1292.8	309.13
2106	8.7708	763.27	1312.7	317.08	620.36	1543.3	466.78	624.72	1535.2	149.53	687.55	1827.6	311.4	730.08	1065.5	441.88	737.26	1058.6	189.12	532.3	1085.7	343.4	533.67	1088.7	263.33	667.24	1001.2	490.92	638.75	995.53	135.25	643.58	1142.1	470.26	667.85	1134.6	150.83	518.67	1052.2	306.3	645.23	752.94	497.25	694.36	667.61	468.78	626.57	666.49	481.82	717.17	755.2	481.28	637.42	552.17	476.52	643.91	544.65	349.77	571.76	328.4	495.08	627.77	259.38	480.33	563.16	251.31	485.78	637.16	335.34	489.1	588.01	112.41	471.94	605.93	112.29	385.18	522.45	74.416	428.63	531.28	43.744	397.8	529.12	43.281	463.34	704.6	36.329	507.01	734.55	44.267	387.42	799.87	54.023	436.36	670.73	733.28	130.46	717.4	645.07	177.67	646.6	646.25	142.67	735.84	737.96	162.83	623.92	551.04	152.05	659.59	542.72	269.82	561.72	327.35	142.75	622.3	262.64	133.99	554.48	254.64	153.75	626.37	334.04	129.38	589.85	111.76	136.86	606.85	108.99	225.63	518.89	73.114	179.45	525.53	46.238	211.79	522.38	47.537	149.71	697.47	45.813	98.926	727.7	43.326	216.41	795.37	55.201	157.55	579.35	1560.8	308.31	529.55	1292.8	309.13
2107	8.775	763.24	1312.7	317.07	620.32	1543.3	466.78	624.71	1535.2	149.52	687.51	1827.6	311.37	730.06	1065.5	441.87	737.25	1058.6	189.11	532.28	1085.7	343.39	533.65	1088.7	263.32	667.21	1001.2	490.91	638.74	995.53	135.24	643.55	1142.1	470.25	667.84	1134.6	150.82	518.65	1052.2	306.29	645.22	752.94	497.24	694.35	667.61	468.78	626.56	666.5	481.82	717.16	755.2	481.27	637.41	552.17	476.52	643.91	544.65	349.76	571.75	328.39	495.08	627.77	259.38	480.33	563.16	251.31	485.77	637.15	335.33	489.09	588	112.41	471.94	605.93	112.29	385.18	522.45	74.415	428.63	531.28	43.742	397.8	529.12	43.278	463.34	704.6	36.33	507.01	734.55	44.268	387.42	799.87	54.024	436.36	670.73	733.28	130.45	717.4	645.08	177.67	646.6	646.25	142.66	735.83	737.96	162.83	623.92	551.03	152.04	659.59	542.72	269.82	561.72	327.35	142.75	622.3	262.64	133.99	554.48	254.64	153.75	626.36	334.04	129.38	589.85	111.76	136.86	606.85	108.99	225.62	518.89	73.113	179.45	525.53	46.238	211.79	522.38	47.537	149.71	697.47	45.814	98.925	727.7	43.327	216.41	795.37	55.202	157.55	579.32	1560.8	308.3	529.52	1292.8	309.12
2108	8.7792	763.21	1312.7	317.07	620.29	1543.3	466.77	624.69	1535.2	149.51	687.48	1827.6	311.35	730.04	1065.5	441.87	737.23	1058.6	189.11	532.26	1085.7	343.39	533.63	1088.7	263.3	667.19	1001.2	490.9	638.72	995.53	135.22	643.52	1142.1	470.24	667.82	1134.6	150.81	518.64	1052.2	306.28	645.21	752.94	497.24	694.34	667.61	468.77	626.56	666.5	481.82	717.15	755.21	481.27	637.4	552.17	476.51	643.91	544.65	349.76	571.74	328.39	495.07	627.77	259.39	480.33	563.15	251.31	485.77	637.15	335.33	489.09	588	112.41	471.94	605.92	112.29	385.18	522.45	74.415	428.63	531.28	43.739	397.8	529.12	43.276	463.34	704.6	36.331	507.01	734.55	44.269	387.42	799.87	54.026	436.36	670.73	733.28	130.44	717.39	645.08	177.66	646.59	646.25	142.65	735.83	737.96	162.82	623.92	551.03	152.04	659.58	542.73	269.81	561.72	327.35	142.74	622.3	262.64	133.98	554.48	254.64	153.75	626.36	334.04	129.37	589.85	111.76	136.85	606.85	108.99	225.62	518.89	73.112	179.45	525.53	46.239	211.79	522.38	47.536	149.71	697.47	45.814	98.925	727.7	43.328	216.41	795.37	55.202	157.55	579.29	1560.8	308.29	529.5	1292.8	309.11
2109	8.7833	763.18	1312.7	317.06	620.25	1543.3	466.76	624.68	1535.2	149.5	687.45	1827.6	311.33	730.02	1065.5	441.86	737.22	1058.6	189.1	532.24	1085.7	343.38	533.61	1088.7	263.29	667.17	1001.2	490.9	638.71	995.53	135.21	643.49	1142.1	470.23	667.8	1134.6	150.8	518.62	1052.2	306.26	645.2	752.94	497.23	694.33	667.61	468.76	626.55	666.5	481.81	717.14	755.21	481.26	637.4	552.17	476.51	643.91	544.65	349.75	571.74	328.39	495.06	627.76	259.39	480.32	563.15	251.31	485.77	637.14	335.33	489.08	588	112.41	471.94	605.92	112.29	385.18	522.45	74.414	428.63	531.28	43.736	397.8	529.12	43.273	463.34	704.6	36.332	507.01	734.55	44.27	387.41	799.87	54.027	436.36	670.72	733.28	130.44	717.39	645.08	177.66	646.59	646.25	142.65	735.82	737.96	162.82	623.91	551.03	152.03	659.58	542.73	269.81	561.72	327.34	142.74	622.3	262.63	133.98	554.48	254.64	153.74	626.36	334.04	129.37	589.85	111.76	136.85	606.85	108.99	225.62	518.89	73.111	179.45	525.53	46.239	211.79	522.38	47.535	149.71	697.47	45.814	98.924	727.7	43.328	216.41	795.37	55.202	157.55	579.26	1560.8	308.28	529.48	1292.8	309.11
